<svg width="141" height="157" viewBox="0 0 141 157" fill="none" xmlns="http://www.w3.org/2000/svg">
<path d="M15.9763 0H14.7863C14.0363 0 13.2763 0.159994 12.5463 0.277327L11.6563 0.415999C10.7563 0.543999 9.85632 0.71467 9.17632 0.853337L8.34631 1.00267C7.76449 1.08905 7.18709 1.20653 6.61631 1.35467C6.25631 1.46134 5.88631 1.58934 5.50631 1.73867C5.06292 1.91189 4.62892 2.11131 4.20632 2.336C3.8498 2.57607 3.51502 2.85102 3.20632 3.15732L3.10632 3.25334L3.00631 3.34933C2.62457 3.72225 2.28857 4.14515 2.00631 4.60799C1.8595 4.84086 1.73233 5.08716 1.62631 5.34399L1.37631 5.57866C0.756985 6.24435 0.399296 7.13713 0.376314 8.07466C0.246314 9.85599 0.096313 12.224 0.016313 14.6347C0.016313 15.3493 0.016313 16.0747 0.016313 16.768C0.016313 17.0453 0.016313 17.312 0.016313 17.5787C0.016313 18.7413 0.016313 19.904 0.016313 21.0667C0.016313 22.5707 0.016313 24.096 0.016313 25.5787C0.016313 28.1493 -0.0536851 30.7947 0.0963149 33.3973C0.172417 34.6819 0.31934 35.9605 0.536317 37.2267C0.710294 38.2279 1.04884 39.1885 1.53632 40.064C2.43594 41.5474 3.75188 42.6897 5.29631 43.328C6.04849 43.6863 6.82799 43.9753 7.62631 44.192C8.28631 44.3627 8.96631 44.4693 9.62631 44.576C10.5663 44.7147 11.5163 44.8213 12.3263 44.9067C13.1363 44.992 14.0563 45.0667 15.0163 45.12C15.9763 45.1733 16.6763 45.1947 17.3963 45.1947C18.5397 45.2018 19.6823 45.127 20.8163 44.9707L21.2663 44.9173C21.8374 44.849 22.4048 44.7493 22.9663 44.6187C23.4665 44.4963 23.9604 44.3467 24.4463 44.1707C25.5131 43.79 26.5497 43.3191 27.5463 42.7627C27.9123 42.5544 28.2663 42.3229 28.6063 42.0693V42.0693C29.1876 41.677 29.7304 41.2232 30.2263 40.7147C31.0402 39.8776 31.7163 38.9004 32.2263 37.824C32.8614 36.4742 33.3222 35.039 33.5963 33.5573C33.8344 32.2488 34.0079 30.9279 34.1163 29.6C34.2863 27.7867 34.3163 25.9307 34.3563 24.128V23.5627C34.3563 21.344 34.4163 19.296 34.4163 17.28C34.4218 15.0319 34.2006 12.7896 33.7563 10.592C33.5024 9.397 33.1199 8.23731 32.6163 7.136C32.1988 6.22779 31.6138 5.41875 30.8963 4.75732C30.2876 4.19744 29.6158 3.72087 28.8963 3.33867C27.8687 2.84297 26.8134 2.41547 25.7363 2.05866L25.2563 1.888C24.6463 1.67467 24.0063 1.45066 23.3763 1.25866C21.4171 0.650905 19.408 0.243731 17.3763 0.0426595C17.0063 0.0213262 16.4863 0 15.9763 0Z" fill="#03A9F4"/>
<path d="M72.7464 26.9118C73.3331 26.9118 73.9231 26.9118 74.5164 26.9118C75.9492 26.9879 77.3738 27.1877 78.7764 27.5092C79.3699 27.6419 79.952 27.8274 80.5164 28.0638C81.2705 28.3424 81.9867 28.7262 82.6464 29.2052C83.3875 29.7146 83.9582 30.4615 84.2764 31.3385C84.4774 31.7981 84.6478 32.2721 84.7864 32.7572C84.9691 33.385 85.1062 34.0269 85.1964 34.6772C85.5915 37.6691 85.712 40.695 85.5564 43.7118C85.5564 45.1305 85.4964 46.5598 85.4364 47.9785C85.4014 49.5632 85.2812 51.1445 85.0764 52.7145C85.0219 53.283 84.9009 53.842 84.7164 54.3785C84.5625 54.8378 84.3752 55.2836 84.1564 55.7118C83.9365 56.1205 83.6857 56.5094 83.4064 56.8745C83.164 57.2167 82.8855 57.5281 82.5764 57.8025C82.2622 58.0635 81.9276 58.2955 81.5764 58.4958C81.3251 58.6399 81.0644 58.7647 80.7964 58.8692C80.5002 59.0035 80.1962 59.1175 79.8864 59.2105C79.5844 59.303 79.2771 59.3743 78.9664 59.4238C78.4964 59.4878 78.0364 59.5732 77.5664 59.6052C76.2264 59.7012 74.8864 59.7225 73.5664 59.6798L71.4664 59.5838L70.4664 59.4878C70.0031 59.4437 69.5424 59.3724 69.0864 59.2745C68.6901 59.2071 68.3014 59.0963 67.9264 58.9438C67.4241 58.7462 66.9444 58.4885 66.4964 58.1758C66.0189 57.8284 65.6082 57.3866 65.2864 56.8745C64.9907 56.368 64.7492 55.8278 64.5664 55.2638C64.3094 54.4423 64.1515 53.5892 64.0964 52.7252C63.9631 51.4075 63.9096 50.0821 63.9364 48.7572C63.9364 45.8238 64.0464 42.8798 64.0864 39.9465C64.0864 38.5243 64.0864 37.1021 64.0864 35.6798V35.1145C64.0282 34.5336 64.0048 33.9493 64.0164 33.3652C64.0164 33.2372 64.0164 33.1092 64.0164 32.9812C64.0164 32.4372 64.0164 31.9145 63.9464 31.3598C63.9353 31.0556 63.9889 30.7527 64.1032 30.4737C64.2175 30.1948 64.3895 29.9471 64.6064 29.7492C64.6898 29.5737 64.7868 29.406 64.8964 29.2478C65.2764 28.6599 65.7888 28.1831 66.3864 27.8612C66.7564 27.6613 67.141 27.4936 67.5364 27.3598C67.8228 27.2784 68.1132 27.2143 68.4064 27.1678C69.1702 27.0311 69.9421 26.9527 70.7164 26.9332L72.7464 26.9118ZM69.1764 30.9118C68.9462 30.9559 68.719 31.0165 68.4964 31.0932L68.2764 31.2318L68.2064 31.3065V31.3598C68.2864 32.7145 68.3564 34.0692 68.3864 35.4345C68.4664 38.279 68.5331 41.1447 68.5864 44.0318C68.5864 46.7732 68.5864 49.5038 68.9364 52.2238C69.0198 52.85 69.1537 53.4674 69.3364 54.0692V54.1438L69.5364 54.2612C70.0069 54.4266 70.4882 54.555 70.9764 54.6452C72.1964 54.7945 73.4264 54.8905 74.6564 54.9652C75.9116 55.0559 77.1712 55.0559 78.4264 54.9652C78.8614 54.8857 79.2896 54.768 79.7064 54.6132L80.0164 54.4212C80.1472 54.2903 80.2708 54.1514 80.3864 54.0052C80.5353 53.7624 80.6689 53.5094 80.7864 53.2478C80.8861 52.952 80.9663 52.649 81.0264 52.3412C81.2362 49.695 81.3163 47.0389 81.2664 44.3838C81.325 41.5833 81.2482 38.7813 81.0364 35.9892C80.9142 35.0132 80.7032 34.0522 80.4064 33.1198L80.3064 32.9385L80.1464 32.7572C79.8256 32.5414 79.4915 32.349 79.1464 32.1812C78.9064 32.0852 78.6764 31.9892 78.4264 31.9145C78.1764 31.8398 77.6664 31.6905 77.2864 31.5945C76.5683 31.3986 75.8405 31.2455 75.1064 31.1358C74.1064 31.0078 73.1764 30.9012 72.2064 30.8372L70.4864 30.8478C70.0489 30.8388 69.6113 30.8602 69.1764 30.9118V30.9118Z" fill="#03A9F4"/>
<path d="M102.236 99.1146C103.526 99.1146 104.826 99.1146 106.116 99.2106C106.766 99.2106 107.406 99.3066 108.056 99.3066C108.706 99.3066 109.256 99.3066 109.856 99.3066C111.29 99.3466 112.716 99.5323 114.116 99.8613C115.356 100.16 116.606 100.416 117.846 100.736C119.413 101 120.911 101.606 122.246 102.517C122.689 102.848 123.098 103.227 123.466 103.648C123.867 104.095 124.204 104.601 124.466 105.152C124.827 105.921 125.118 106.724 125.336 107.552C125.676 108.843 125.976 110.144 126.286 111.445C126.936 114.112 127.346 116.779 127.746 119.552C127.956 120.949 128.176 122.347 128.356 123.755C128.576 125.429 128.716 127.115 128.806 128.811C128.946 131.605 129.066 134.4 128.986 137.195C128.986 138.752 128.876 140.309 128.796 141.867C128.707 143.518 128.536 145.162 128.286 146.795C128.139 147.737 127.877 148.655 127.506 149.525C127.207 150.187 126.827 150.804 126.376 151.36C125.863 152.001 125.255 152.549 124.576 152.981C123.989 153.355 123.378 153.683 122.746 153.963H122.676L122.346 154.112L122.206 154.176C121.596 154.443 120.976 154.709 120.346 154.944C119.716 155.179 119.096 155.371 118.466 155.563L117.286 155.915C116.47 156.126 115.642 156.279 114.806 156.373C114.186 156.459 113.546 156.523 112.916 156.576C110.157 156.78 107.39 156.83 104.626 156.725C101.742 156.677 98.8654 156.378 96.0264 155.829C94.7488 155.576 93.4866 155.241 92.2464 154.827C91.4471 154.561 90.6625 154.248 89.8964 153.888C89.3154 153.633 88.7675 153.3 88.2664 152.896C87.6141 152.419 87.0595 151.806 86.6364 151.093C86.3464 150.562 86.134 149.986 86.0064 149.387C85.8518 148.524 85.7515 147.651 85.7064 146.773C85.6264 145.419 85.5964 144.064 85.6364 142.709C85.8264 136.821 85.9164 130.923 86.0264 125.035C86.0964 121.387 86.1664 117.739 86.1964 114.091C86.1054 113.982 86.025 113.864 85.9564 113.739C85.7775 113.416 85.6841 113.047 85.6864 112.672C85.6114 111.294 85.6114 109.912 85.6864 108.533C85.6551 106.917 85.9626 105.313 86.5864 103.84C87.0317 102.877 87.7256 102.071 88.5864 101.515C89.2222 101.157 89.8929 100.874 90.5864 100.672C91.1764 100.491 91.7664 100.267 92.3764 100.128C92.9864 99.9893 93.5464 99.8399 94.1364 99.7439C94.7264 99.6479 95.3164 99.5413 95.9064 99.4346C96.6764 99.3066 97.4464 99.2213 98.2264 99.1466C99.4864 99.1146 100.876 99.1146 102.236 99.1146ZM94.8164 104.107L93.2964 104.341L93.6264 104.288C93.0364 104.405 92.4564 104.555 91.8764 104.725C91.4764 104.843 91.0764 104.949 90.6864 105.099L90.3264 105.301L90.2264 105.419C90.1064 105.611 89.9964 105.792 89.8864 105.995C89.7764 106.197 89.7964 106.379 89.7564 106.581C89.6764 107.477 89.6764 108.395 89.6664 109.301C89.6564 110.208 89.6664 110.816 89.6664 111.573V112.235C89.7264 118.059 89.8464 123.893 89.9664 129.717C90.0264 132.736 90.0764 135.744 90.1464 138.752C90.2064 141.376 90.2764 144 90.5664 146.603C90.6344 147.195 90.7481 147.78 90.9064 148.352V148.448L91.1664 148.715C91.5304 148.971 91.9114 149.2 92.3064 149.397C93.3359 149.818 94.3877 150.175 95.4564 150.464C96.0564 150.624 96.6564 150.784 97.2664 150.901C97.8764 151.019 98.6764 151.157 99.3864 151.264C102.044 151.563 104.715 151.702 107.386 151.68C108.686 151.68 109.976 151.68 111.266 151.68C112.556 151.68 113.636 151.52 114.816 151.371C115.975 151.135 117.117 150.818 118.236 150.421C118.976 150.187 119.696 149.899 120.416 149.589L120.746 149.429C121.259 149.182 121.75 148.89 122.216 148.555L122.606 148.16C122.716 147.979 122.816 147.787 122.916 147.595C123.062 147.125 123.172 146.643 123.246 146.155C123.375 144.826 123.438 143.491 123.436 142.155C123.436 140.597 123.436 139.029 123.436 137.472C123.436 135.915 123.376 134.56 123.306 133.109C123.166 130.432 123.046 127.776 122.736 125.109C122.496 123.253 122.216 121.408 121.986 119.563C121.756 117.717 121.426 115.605 120.986 113.632C120.786 112.629 120.586 111.616 120.356 110.613C120.126 109.611 119.966 108.896 119.696 108.064C119.596 107.872 119.496 107.68 119.386 107.499C119.25 107.328 119.103 107.168 118.946 107.019C118.789 106.909 118.625 106.809 118.456 106.72C117.238 106.248 115.996 105.849 114.736 105.525C114.056 105.344 113.376 105.152 112.736 104.949C112.187 104.786 111.63 104.657 111.066 104.565C110.546 104.501 110.066 104.459 109.506 104.416C108.946 104.373 108.356 104.416 107.776 104.331L105.926 104.181C104.566 104.085 103.196 104 101.826 103.936C100.456 103.872 99.1964 103.797 97.8864 103.851C96.8764 103.84 95.8464 103.968 94.8164 104.107Z" fill="#99DDC6"/>
<path d="M112.376 37.7385H113.376C114.716 37.7385 116.056 37.8345 117.376 37.9199C118.696 38.0052 120.096 38.1012 121.456 38.1652C122.816 38.2292 124.026 38.3892 125.316 38.4745C126.606 38.5598 127.956 38.6985 129.316 38.7945C130.779 38.8475 132.229 39.0911 133.636 39.5199C134.375 39.7881 135.091 40.1235 135.776 40.5225C136.561 40.9465 137.261 41.5299 137.836 42.2398C138.32 42.8532 138.726 43.5309 139.046 44.2559C139.356 45.0345 139.636 45.8132 139.876 46.6238C140.274 47.9132 140.566 49.2374 140.746 50.5812C140.961 52.1929 141.082 53.8174 141.106 55.4452C141.105 56.7787 141.028 58.1109 140.876 59.4345C140.726 61.0345 140.616 62.6345 140.346 64.2238C140.128 65.6183 139.794 66.9891 139.346 68.3199C139.08 69.0949 138.745 69.8413 138.346 70.5492C138.154 70.8556 137.947 71.1511 137.726 71.4345C137.6 71.63 137.456 71.8121 137.296 71.9785C136.873 72.3902 136.407 72.7481 135.906 73.0452C134.458 73.8152 132.873 74.2514 131.256 74.3252C129.926 74.4852 128.596 74.6025 127.256 74.6879C125.916 74.7732 124.586 74.7732 123.256 74.7839C121.926 74.7945 120.606 74.7839 119.256 74.7839C117.906 74.7839 116.446 74.7839 115.036 74.6985C113.626 74.6132 112.486 74.5065 111.216 74.4105C109.946 74.3145 108.566 74.1759 107.216 74.0052C106.306 73.8879 105.396 73.7705 104.496 73.5785C103.821 73.4392 103.154 73.2612 102.496 73.0452C100.764 72.6195 99.1859 71.6629 97.9564 70.2932C97.6089 69.866 97.2945 69.4094 97.0164 68.9278C96.742 68.425 96.511 67.8966 96.3264 67.3492C96.0419 66.4472 95.8573 65.5129 95.7764 64.5652C95.6514 63.2281 95.6514 61.881 95.7764 60.5438C95.8764 59.0505 96.0564 57.5572 96.2464 56.0745L96.6364 52.9812C96.8264 51.2532 97.0064 49.5358 97.2764 47.8292C97.3895 47.1475 97.5431 46.4741 97.7364 45.8132C97.9172 45.1809 98.1343 44.5611 98.3864 43.9572C98.6691 43.3476 99.0218 42.7779 99.4364 42.2612C99.9398 41.5835 100.533 40.9871 101.196 40.4905L101.486 40.4479L101.676 40.3199C102.236 39.9702 102.821 39.6705 103.426 39.4238C104.901 38.7157 106.5 38.3521 108.116 38.3572V38.3572C108.404 38.1879 108.728 38.0998 109.056 38.1012H109.346C110.026 38.0052 110.696 37.9198 111.346 37.8772C111.716 37.7492 112.046 37.7385 112.376 37.7385ZM108.756 43.5732C108.561 43.5975 108.368 43.6331 108.176 43.6798C107.734 43.7846 107.3 43.9236 106.876 44.0958C106.216 44.3945 105.581 44.7513 104.976 45.1625L104.776 45.3012C104.639 45.439 104.509 45.585 104.386 45.7385C104.204 46.0213 104.04 46.3171 103.896 46.6238C103.631 47.5198 103.43 48.4363 103.296 49.3652C102.996 51.9465 102.806 54.5492 102.506 57.1305C102.346 58.5705 102.226 60.0105 102.156 61.4612C102.086 62.5871 102.086 63.7166 102.156 64.8425C102.226 65.1518 102.296 65.4612 102.386 65.7705C102.487 65.9721 102.597 66.1679 102.716 66.3572L102.856 66.5172C103.143 66.7103 103.44 66.8848 103.746 67.0398C104.541 67.3708 105.356 67.6417 106.186 67.8505C107.076 68.0745 107.996 68.2025 108.906 68.3519C110.006 68.5012 111.106 68.6185 112.206 68.7679C113.576 68.9599 114.936 69.0772 116.316 69.1519C119.026 69.3119 121.746 69.3439 124.466 69.3865C126.941 69.4383 129.417 69.3136 131.876 69.0132C132.335 68.9424 132.787 68.8282 133.226 68.6719L133.646 68.4159L133.836 68.2025C134.111 67.7545 134.352 67.2837 134.556 66.7945C134.946 65.4809 135.237 64.1362 135.426 62.7732C135.526 61.8985 135.596 61.0239 135.656 60.1492C135.716 59.2745 135.836 58.2398 135.906 57.2798C135.976 56.3198 135.986 55.2958 135.976 54.2932C135.966 53.2905 135.926 52.3625 135.826 51.4025C135.718 50.4653 135.557 49.5357 135.346 48.6185C135.139 47.6805 134.885 46.7548 134.586 45.8452C134.479 45.5945 134.355 45.3522 134.216 45.1199L134.126 45.0238C133.849 44.8331 133.562 44.6586 133.266 44.5012C132.673 44.2651 132.06 44.0866 131.436 43.9679C130.436 43.8719 129.436 43.8505 128.516 43.7758C127.396 43.6798 126.276 43.6372 125.156 43.5412C123.846 43.4452 122.536 43.3279 121.226 43.2639C119.916 43.1999 118.716 43.1359 117.456 43.0505H116.836C114.126 43.2105 111.426 43.2638 108.756 43.5732V43.5732Z" fill="#4D4962"/>
<path d="M68.9963 85.4186C68.9963 85.6853 68.9963 85.9413 68.9963 86.2079C68.9963 87.2746 68.9363 88.3413 68.8763 89.4079C68.8163 90.4746 68.7463 91.6053 68.6963 92.704C68.6463 93.8026 68.5463 94.7733 68.4863 95.8186C68.4263 96.864 68.3263 97.952 68.2463 99.0186C68.2118 100.203 68.0405 101.378 67.7363 102.517C67.5494 103.112 67.3117 103.687 67.0263 104.235C66.7305 104.875 66.3154 105.445 65.8063 105.909C65.3741 106.299 64.8927 106.622 64.3763 106.869C63.828 107.128 63.2672 107.356 62.6963 107.552C61.7802 107.872 60.8401 108.107 59.8863 108.256C58.7428 108.426 57.5907 108.523 56.4363 108.544C55.487 108.538 54.5387 108.474 53.5963 108.352C52.4663 108.235 51.3263 108.149 50.2063 107.925C49.2145 107.748 48.2403 107.473 47.2963 107.104C46.7429 106.881 46.2105 106.602 45.7063 106.272C45.4863 106.123 45.2863 105.941 45.0863 105.781C44.9493 105.669 44.8191 105.548 44.6963 105.419C44.3947 105.08 44.1328 104.704 43.9163 104.299C43.3667 103.13 43.0533 101.85 42.9963 100.544C42.8863 99.4773 42.8063 98.4106 42.7463 97.3439C42.6863 96.2773 42.6863 95.2106 42.6763 94.1439C42.6663 93.0773 42.6763 92.0106 42.6763 90.9439C42.6763 89.8773 42.6763 88.6719 42.7263 87.5306C42.7763 86.3893 42.8663 85.4826 42.9363 84.4479C43.0063 83.4133 43.0963 82.3146 43.2263 81.2479C43.3063 80.5119 43.3863 79.776 43.5263 79.0506C43.6271 78.5107 43.7539 77.9766 43.9063 77.4506C44.2151 76.0422 44.9116 74.7643 45.9063 73.7813C46.2195 73.4999 46.554 73.2466 46.9063 73.0239C47.2638 72.8046 47.6385 72.619 48.0263 72.4693C48.6732 72.2329 49.3449 72.0824 50.0263 72.0213C50.9739 71.92 51.9287 71.92 52.8763 72.0213C53.9463 72.096 54.9963 72.2453 56.0563 72.4053L58.2463 72.7146C59.4663 72.8746 60.6963 73.0133 61.9063 73.2266C62.389 73.3233 62.8663 73.448 63.3363 73.6C63.7861 73.7489 64.2269 73.927 64.6563 74.1333C65.0882 74.3587 65.4915 74.6418 65.8563 74.9759C66.336 75.3842 66.7601 75.8616 67.1163 76.3946L67.2363 76.5973L67.3263 76.7466C67.5715 77.1987 67.7854 77.6693 67.9663 78.1546C68.4673 79.3493 68.7263 80.6432 68.7263 81.952V81.952C68.8496 82.1867 68.9149 82.4509 68.9163 82.72V82.9546C68.9863 83.4986 69.0463 84.0213 69.0763 84.5973C68.9963 84.8853 68.9963 85.152 68.9963 85.4186ZM64.8663 82.4959C64.8663 82.3359 64.8663 82.1759 64.7863 82.0266C64.7082 81.6645 64.608 81.3082 64.4863 80.9599C64.2642 80.427 64.0034 79.9135 63.7063 79.4239L63.5963 79.2639C63.504 79.1494 63.4037 79.0425 63.2963 78.9439C63.0956 78.7962 62.8851 78.6643 62.6663 78.5493C62.0116 78.3344 61.3432 78.1704 60.6663 78.0586C58.8363 77.8239 56.9963 77.6639 55.1563 77.4293C54.1563 77.3013 53.1563 77.2053 52.0863 77.1413C51.2871 77.088 50.4855 77.088 49.6863 77.1413C49.4625 77.1891 49.2419 77.2533 49.0263 77.3333C48.8798 77.4058 48.7393 77.4915 48.6063 77.5893L48.4963 77.7066C48.3579 77.9375 48.231 78.1761 48.1163 78.4213C47.8844 79.0644 47.6939 79.7237 47.5463 80.3946C47.3863 81.1199 47.2963 81.8559 47.1863 82.5279C47.0863 83.4239 46.9963 84.32 46.8863 85.2053C46.7563 86.272 46.6763 87.4133 46.6163 88.5226C46.5063 90.7093 46.4863 92.9066 46.4563 95.104C46.4179 97.1026 46.5048 99.1017 46.7163 101.088C46.7717 101.45 46.8553 101.807 46.9663 102.155C47.0188 102.269 47.0789 102.38 47.1463 102.485L47.2963 102.645C47.6153 102.864 47.9496 103.057 48.2963 103.221C49.2304 103.537 50.1868 103.773 51.1563 103.925C51.7763 104 52.3963 104.064 53.0163 104.107C53.6363 104.149 54.3663 104.256 55.0163 104.309C55.6663 104.363 56.4263 104.373 57.1363 104.309C57.8244 104.307 58.512 104.268 59.1963 104.192C59.8698 104.109 60.5378 103.98 61.1963 103.808C61.8729 103.64 62.5406 103.434 63.1963 103.189C63.3747 103.104 63.5483 103.008 63.7163 102.901L63.7763 102.827C63.913 102.604 64.0366 102.372 64.1463 102.133C64.3172 101.65 64.4444 101.149 64.5263 100.64C64.5963 99.8613 64.6063 99.0719 64.6663 98.2933C64.7263 97.5146 64.7663 96.4799 64.8263 95.5733C64.8863 94.6666 64.9863 93.4399 65.0263 92.3733C65.0663 91.3066 65.1163 90.336 65.1763 89.3226C65.1763 89.152 65.1763 88.992 65.1763 88.8213C65.1163 86.8266 65.0763 84.6506 64.8663 82.4959Z" fill="#4D4962"/>
</svg>
